<?xml version="1.0" encoding="UTF-8"?>
<svg id="Layer_1" xmlns="http://www.w3.org/2000/svg" version="1.1" viewBox="0 0 1035.1 335.3">
  <!-- Generator: Adobe Illustrator 29.7.1, SVG Export Plug-In . SVG Version: 2.1.1 Build 8)  -->
  <defs>
    <style>
      .st0 {
        fill: #fd5000;
      }
    </style>
  </defs>
  <path d="M16.5,256.2v-55.5c0-16.4,13.9-29.5,30.8-29.5h13.7c17,0,30.8,13.1,30.8,29.5v55.5c0,16.2-13.7,29.6-30.8,29.6h-13.7c-16.9,0-30.8-13.4-30.8-29.6ZM47.3,269.3h13.7c7.9,0,14.6-5.9,14.6-13.1v-55.5c0-7.4-6.4-13.1-14.6-13.1h-13.7c-8.2,0-14.6,5.9-14.6,13.1v55.5c0,7.2,6.7,13.1,14.6,13.1ZM126.4,276.6v43.5h-16.4v-117.8h16.4v9.2l13.6-9.2h12.6c16.2,0,29.5,13.3,29.5,29.5v24.5c0,16.4-13.3,29.5-29.5,29.5h-12.6l-13.6-9.2h0ZM145,269.4h7.5c7.2,0,13.1-5.9,13.1-13.1v-24.5c0-7.2-5.9-13.1-13.1-13.1h-7.5l-18.7,12.6v25.5l18.7,12.6ZM196.4,256.2v-24.4c0-16.4,13.3-29.5,29.5-29.5h13.1c15.9,0,28.6,12.3,29.5,27.8v17.7h-55.6v8.3c0,7.2,5.9,13.1,13.1,13.1h13.1c7.2,0,13.1-5.9,13.1-13.1v-1.6h16.4v1.6c0,16.2-13.1,29.6-29.5,29.6h-13.1c-16.2,0-29.5-13.4-29.5-29.6l-.1.1ZM252,234.7v-2.9c0-7.4-5.7-13.1-13.1-13.1h-13.1c-7.4,0-13.1,5.9-13.1,13.1v2.9h39.3ZM327.5,218.7h-7.5l-18.7,12.1v55h-16.4v-83.5h16.4v9.8l13.6-9.8h12.6c16.2,0,29.5,13.1,29.5,29.5v54h-16.4v-54c0-7.2-5.9-13.1-13.1-13.1ZM375.5,171.3h42.5c16.4,0,29.5,13.1,29.5,29.5v9.8c0,16.4-13.1,29.5-29.5,29.5h-26.2v45.8h-16.4v-114.5l.1-.1ZM418.1,223.6c7.4,0,13.1-5.7,13.1-13.1v-9.8c0-7.4-5.7-13.1-13.1-13.1h-26.2v36h26.2ZM462.5,202.3h16.4v12.6l18.5-12.6h4.7c15.1,0,27.5,13.1,27.5,29.5v6.5h-16.4v-6.5c0-7.2-4.6-13.1-11.1-13.1h-1.5l-21.8,14.6v52.5h-16.4v-83.5h.1ZM540.3,269.4h27v-50.7h-27v-16.4h43.4v67.1h27v16.4h-70.4v-16.4ZM564.8,169.6h18.8v18h-18.8v-18ZM666.4,218.7h-7.5l-18.7,12.1v55h-16.4v-83.5h16.4v9.8l13.6-9.8h12.6c16.2,0,29.5,13.1,29.5,29.5v54h-16.4v-54c0-7.2-5.9-13.1-13.1-13.1h0ZM732.8,256.3v-37.6h-25.4v-16.4h25.4v-21.3h16.4v21.3h30.3v16.4h-30.3v37.6c0,7.4,5.7,13.1,13.1,13.1h17.2v16.4h-17.2c-16.4,0-29.5-13.1-29.5-29.5ZM813.3,187.6h-27.8v-16.4h72v16.4h-27.8v98.2h-16.4v-98.2h0ZM855.8,256.3v-24.5c0-16.4,13.3-29.5,29.5-29.5h12.6l13.6,9.2v-9.2h16.4v83.5h-16.4v-9.2l-13.6,9.2h-12.6c-16.2,0-29.5-13.3-29.5-29.5h0ZM885.2,269.4h7.5l18.7-12.6v-25.5l-18.7-12.6h-7.5c-7.2,0-13.1,5.9-13.1,13.1v24.5c0,7.2,5.9,13.1,13.1,13.1ZM944.5,290.5h16.4c0,7.2,5.9,13.1,13.1,13.1h13.1c7.2,0,13.1-5.9,13.1-13.1v-13.9l-13.6,9.2h-12.6c-16.2,0-29.5-13.3-29.5-29.5v-24.5c0-16.4,13.3-29.5,29.5-29.5h12.6l13.6,9.2v-9.2h16.4v88.2c0,16.2-13.1,29.6-29.5,29.6h-13.1c-16.2,0-29.5-13.4-29.5-29.6ZM974,269.4h7.5l18.7-12.6v-25.5l-18.7-12.6h-7.5c-7.2,0-13.1,5.9-13.1,13.1v24.5c0,7.2,5.9,13.1,13.1,13.1Z"/>
  <path class="st0" d="M616.5,108.6c-5.4,2.2-11,4.3-16.6,6.2-8.4-8-19.7-13-32.2-13h-102.2c-12.5,0-23.8,5-32.2,13-5.6-1.9-11.2-3.9-16.6-6.2,11.6-14.2,29.1-23.3,48.8-23.3h102.2c19.7,0,37.3,9.1,48.8,23.3ZM586.8,19.5h-140.6c-39.2,0-73.7,20.7-93,51.8,4.3,3.4,8.7,6.7,13.2,9.8,16.3-27.1,45.9-45.2,79.8-45.2h140.6c33.9,0,63.5,18.1,79.8,45.2,4.5-3.1,8.9-6.4,13.2-9.8-19.4-31.1-53.8-51.8-93-51.8h0ZM577.2,52.4h-121.4c-30.4,0-57.1,15.8-72.5,39.6,4.7,2.8,9.5,5.4,14.4,7.9,12.5-18.7,33.9-31,58.1-31h121.4c24.2,0,45.5,12.3,58.1,31,4.9-2.5,9.7-5.1,14.4-7.9-15.4-23.8-42.1-39.6-72.5-39.6Z"/>
</svg>